<svg width="61" height="61" viewBox="0 0 61 61" fill="none" xmlns="http://www.w3.org/2000/svg">
<mask id="path-1-outside-1" maskUnits="userSpaceOnUse" x="0" y="0" width="61" height="61" fill="black">
<rect fill="white" width="61" height="61"/>
<path d="M55.5714 5L5 55.5714Z"/>
</mask>
<path d="M59.107 8.53553C61.0596 6.58291 61.0596 3.41709 59.107 1.46447C57.1543 -0.488155 53.9885 -0.488155 52.0359 1.46447L59.107 8.53553ZM1.46447 52.0359C-0.488155 53.9885 -0.488155 57.1543 1.46447 59.107C3.41709 61.0596 6.58291 61.0596 8.53553 59.107L1.46447 52.0359ZM52.0359 1.46447L1.46447 52.0359L8.53553 59.107L59.107 8.53553L52.0359 1.46447Z" fill="#FF6347" mask="url(#path-1-outside-1)"/>
<mask id="path-3-outside-2" maskUnits="userSpaceOnUse" x="0" y="0" width="61" height="61" fill="black">
<rect fill="white" width="61" height="61"/>
<path d="M5 5L55.5714 55.5714Z"/>
</mask>
<path d="M8.53553 1.46447C6.58291 -0.488155 3.41709 -0.488155 1.46447 1.46447C-0.488155 3.41709 -0.488155 6.58291 1.46447 8.53553L8.53553 1.46447ZM52.0359 59.107C53.9885 61.0596 57.1543 61.0596 59.107 59.107C61.0596 57.1543 61.0596 53.9885 59.107 52.0359L52.0359 59.107ZM1.46447 8.53553L52.0359 59.107L59.107 52.0359L8.53553 1.46447L1.46447 8.53553Z" fill="#FF6347" mask="url(#path-3-outside-2)"/>
</svg>
